<svg width="183" height="36" viewBox="0 0 183 36" fill="none" xmlns="http://www.w3.org/2000/svg">
<path d="M8.73208 8.29502C8.73208 7.33024 8.89753 6.74274 8.98804 6.04906L9.54519 1.96486C9.58974 1.57272 9.62014 1.36178 9.62014 1.22658C9.62014 1.00008 9.46954 0.81958 9.19874 0.81958C8.97248 0.81958 8.77733 1.04609 8.46128 1.42195L5.0738 5.62719V5.86785C6.60951 6.56153 6.98567 6.8482 6.98567 8.29502L6.78981 17.8352C4.17019 22.417 0 31.5367 0 33.811C0 34.8664 0.707051 35.4999 1.50602 35.4999C2.24347 35.4999 2.67972 35.0469 3.29698 34.3844C3.86969 33.7664 5.51005 32.1533 6.29276 31.3853C6.63921 31.0236 7.18152 30.4651 7.76837 30.4651C8.35522 30.4651 8.88268 31.0236 9.24399 31.3853C10.0118 32.1533 11.6678 33.7664 12.2398 34.3844C12.8266 35.0476 13.2791 35.4992 14.0314 35.4992C14.829 35.4992 15.5219 34.8664 15.5219 33.8117C15.5219 31.5658 11.4267 22.5982 8.85228 18.0313L8.73208 8.29502ZM28.2891 27.6168C28.9509 26.6074 29.6283 25.5973 29.6283 23.8037C29.6283 22.2217 29.2217 21.1811 29.2217 20.4273C29.2217 19.7046 30.1854 19.0711 32.4883 19.0711C34.7926 19.0711 35.7556 19.7046 35.7556 20.428C35.7556 21.1811 35.3497 22.2217 35.3497 23.8044C35.3497 27.1652 37.818 27.8433 37.818 30.7369C37.818 32.7415 35.6205 33.7063 32.489 33.7063C30.908 33.7063 29.5979 33.4953 28.5444 32.9227C28.3112 33.4768 28.0078 33.9985 27.6415 34.475C29.0556 35.2437 30.727 35.4695 32.489 35.4695C36.1925 35.4695 39.5949 34.3242 39.5949 30.5861C39.5949 26.8183 37.1414 26.3958 37.1414 23.9247C37.1414 22.3568 37.6377 21.1217 37.6377 20.0359C37.6377 18.6492 36.0716 17.6398 33.5128 17.4586L33.3467 8.17468C33.3325 7.2545 34.642 6.83334 34.5967 6.32016C34.4009 3.87884 34.2354 2.70313 34.1598 2.14606C34.0693 1.54299 33.5425 1.27189 32.489 1.27189C31.4355 1.27189 30.908 1.54299 30.8175 2.14606C30.7426 2.70313 30.5771 3.87884 30.3813 6.32087C30.3509 6.83334 31.6455 7.25521 31.6306 8.17468L31.4652 17.4586C28.8908 17.6547 27.3403 18.6492 27.3403 20.0359C27.3403 21.121 27.8522 22.3576 27.8522 23.9247C27.8522 24.663 27.6111 25.2505 27.295 25.7481C27.7077 26.324 28.0424 26.9524 28.2891 27.6168ZM15.4158 28.6275C16.1688 27.2409 17.5837 25.9144 17.5837 23.7293C17.5837 21.3482 16.41 20.3077 16.41 19.9311L16.5747 19.8709C16.9812 20.3834 17.6141 21.1974 18.5771 21.1974C19.3753 21.1974 19.9325 20.7748 20.2485 19.9764C20.5646 20.7748 21.1062 21.1974 21.9193 21.1974C22.883 21.1974 23.5151 20.3834 23.9217 19.8709L24.0723 19.9311C24.0723 20.3077 22.9127 21.3482 22.9127 23.7293C22.9127 26.8488 25.5627 27.844 25.5627 30.5868C25.5627 32.5758 23.3801 33.707 20.2485 33.707C18.9539 33.707 17.8545 33.5109 16.9961 33.1789C17.0117 33.7218 16.936 34.6109 16.7854 35.003C17.8997 35.3498 19.0593 35.4702 20.2485 35.4702C23.9521 35.4702 27.3544 34.1593 27.3544 30.5868C27.3544 26.9698 24.7044 26.1105 24.7044 23.5481C24.7044 21.4232 26.1347 20.0967 26.1347 18.9819C26.1347 18.2429 25.4418 17.5351 24.6443 17.5351C24.0426 17.5351 23.711 18.0023 23.4847 18.3031C23.0485 18.8764 22.8682 19.3733 21.9949 19.3733C21.5884 19.3733 21.4081 19.2679 21.302 19.0718L21.1366 8.17539C21.1366 7.05985 21.4979 6.87864 21.7093 6.75831C21.874 6.63798 22.0098 6.51764 22.0098 6.24584C22.0098 3.77408 22.7027 3.18658 22.7027 2.5382C22.7027 2.29754 22.4765 2.23666 22.2057 2.05617C21.7687 1.73976 20.9563 1.27259 20.2634 1.27259C19.5705 1.27259 18.7574 1.73976 18.3211 2.05617C18.0652 2.23666 17.8248 2.29683 17.8248 2.5382C17.8248 3.18658 18.5177 3.77408 18.5177 6.24584C18.5177 6.51694 18.652 6.63798 18.833 6.75831C19.0289 6.87864 19.4057 7.04498 19.4057 8.17539L19.2099 19.0421C19.1194 19.253 18.9384 19.3733 18.5021 19.3733C17.6289 19.3733 17.4486 18.8764 17.0117 18.3187C16.7854 18.0023 16.4389 17.5351 15.8521 17.5351C15.0545 17.5351 14.3616 18.2429 14.3616 18.9819C14.3616 20.0967 15.792 21.4232 15.792 23.5481C15.792 24.7691 15.1295 25.6738 14.5426 26.5479C14.8587 27.2416 15.1599 27.9346 15.4158 28.6275ZM7.76766 28.6877C6.87961 28.6877 6.12731 29.3212 5.3142 30.0595C4.38089 30.8877 3.25102 32.0641 2.00166 33.5413C1.94156 33.6164 1.80581 33.6015 1.82066 33.4507C2.19752 30.979 5.28379 24.2114 7.76766 19.735C10.2515 24.1965 13.3378 30.9634 13.714 33.4507C13.7295 33.5711 13.5796 33.6164 13.504 33.5109C12.2843 32.0641 11.1403 30.8884 10.2063 30.0595C9.40873 29.3205 8.65572 28.6877 7.76766 28.6877ZM32.4883 25.2363C32.9107 25.2335 33.315 25.0643 33.6136 24.7653C33.9123 24.4663 34.0813 24.0616 34.0841 23.6387C34.0813 23.2159 33.9123 22.8112 33.6136 22.5121C33.315 22.2131 32.9107 22.0439 32.4883 22.0412C32.0659 22.0439 31.6616 22.2131 31.363 22.5121C31.0643 22.8112 30.8953 23.2159 30.8925 23.6387C30.8953 24.0616 31.0643 24.4663 31.363 24.7653C31.6616 25.0643 32.0659 25.2335 32.4883 25.2363Z" fill="#2D3F51"/>
<path d="M64.6313 24.1841C64.1663 24.1841 63.9338 23.9156 63.9338 23.3785V16.088H62.0506V23.1771C62.0506 23.7142 61.8181 23.9827 61.3532 23.9827H57.3427C56.8778 23.9827 56.6453 23.7142 56.6453 23.1771V3.27926C56.6453 2.71535 56.8778 2.4334 57.3427 2.4334H61.3532C61.8181 2.4334 62.0506 2.71535 62.0506 3.27926V10.0462H63.9338V3.15842C63.9338 2.59451 64.1663 2.31256 64.6313 2.31256H68.6766C69.1415 2.31256 69.374 2.59451 69.374 3.15842V23.3785C69.374 23.9156 69.1415 24.1841 68.6766 24.1841H64.6313ZM42.8703 21.0826C42.4053 21.0826 42.1729 20.8141 42.1729 20.2771V3.48065C42.1729 2.9436 42.4053 2.67507 42.8703 2.67507H46.5669C47.0319 2.67507 47.2644 2.9436 47.2644 3.48065V6.94466H49.7752V3.48065C49.7752 2.9436 50.0193 2.67507 50.5076 2.67507H54.1344C54.6226 2.67507 54.8667 2.9436 54.8667 3.48065V20.2771C54.8667 20.8141 54.6226 21.0826 54.1344 21.0826H42.8703ZM69.0253 28.3329C69.4903 28.3329 69.7228 28.6014 69.7228 29.1385V33.972C69.7228 34.509 69.4903 34.7775 69.0253 34.7775H43.8816C43.4167 34.7775 43.1842 34.509 43.1842 33.972V24.8286C43.1842 24.2915 43.4167 24.023 43.8816 24.023H49.1475C49.6125 24.023 49.845 24.2915 49.845 24.8286V28.3329H69.0253ZM49.7752 15.8061V12.1809H47.2644V15.8061H49.7752Z" fill="#2D3F51"/>
<path d="M73.622 3.964C73.622 3.42695 73.8662 3.15842 74.3544 3.15842H98.6611C99.1493 3.15842 99.3934 3.42695 99.3934 3.964V8.39471C99.3934 8.93176 99.1493 9.20029 98.6611 9.20029H74.3544C73.8662 9.20029 73.622 8.93176 73.622 8.39471V3.964ZM80.7362 17.1756H98.8006C99.2888 17.1756 99.5329 17.4441 99.5329 17.9811V22.4118C99.5329 22.9489 99.2888 23.2174 98.8006 23.2174H74.7031C74.4706 23.2174 74.2846 23.1503 74.1451 23.016C74.0056 22.8818 73.9475 22.6669 73.9708 22.3716L74.4939 11.174C74.5404 10.6638 74.7845 10.4087 75.2262 10.4087H80.248C80.7594 10.4087 81.0036 10.6906 80.9803 11.2545L80.7362 17.1756ZM73.6918 34.3747C73.2036 34.3747 72.9594 34.0928 72.9594 33.5289V29.0176C72.9594 28.4806 73.2036 28.212 73.6918 28.212H99.7421C100.23 28.212 100.474 28.4806 100.474 29.0176V33.5289C100.474 34.0928 100.23 34.3747 99.7421 34.3747H73.6918Z" fill="#2D3F51"/>
<path d="M105.455 34.9789C104.99 34.9789 104.757 34.7104 104.757 34.1733V27.2051C104.757 26.6412 104.99 26.3592 105.455 26.3592H123.24V24.7078H105.455C104.99 24.7078 104.757 24.4392 104.757 23.9022V21.7674C104.757 21.2303 104.99 20.9618 105.455 20.9618H129.413C129.878 20.9618 130.11 21.2303 130.11 21.7674V28.6551C130.11 29.1922 129.878 29.4607 129.413 29.4607H111.662V31.1927H129.727C130.192 31.1927 130.424 31.4612 130.424 31.9983V34.1733C130.424 34.7104 130.192 34.9789 129.727 34.9789H105.455ZM120.904 14.4769C120.904 15.3361 120.694 16.0746 120.276 16.6922C119.881 17.3098 119.311 17.82 118.567 18.2228C117.846 18.5988 116.963 18.8807 115.917 19.0687C114.894 19.2298 113.755 19.3104 112.499 19.3104C111.244 19.3104 110.105 19.2298 109.082 19.0687C108.059 18.8807 107.175 18.5988 106.431 18.2228C105.687 17.82 105.106 17.3098 104.688 16.6922C104.292 16.0746 104.095 15.3361 104.095 14.4769V14.0338C104.095 13.1745 104.292 12.436 104.688 11.8184C105.106 11.2008 105.676 10.704 106.396 10.3281C107.14 9.92531 108.024 9.64336 109.047 9.48224C110.093 9.29428 111.244 9.20029 112.499 9.20029C113.755 9.20029 114.894 9.29428 115.917 9.48224C116.94 9.64336 117.823 9.92531 118.567 10.3281C119.311 10.704 119.881 11.2008 120.276 11.8184C120.694 12.436 120.904 13.1745 120.904 14.0338V14.4769ZM124.391 18.9076C123.903 18.9076 123.659 18.639 123.659 18.102V3.15842C123.659 2.59451 123.903 2.31256 124.391 2.31256H129.378C129.866 2.31256 130.11 2.59451 130.11 3.15842V7.34745H131.749C132.214 7.34745 132.447 7.62941 132.447 8.19331V12.9462C132.447 13.4833 132.214 13.7518 131.749 13.7518H130.11V18.102C130.11 18.639 129.866 18.9076 129.378 18.9076H124.391ZM103.397 4.36679C103.397 3.82974 103.641 3.56121 104.13 3.56121H109.361V1.34586C109.361 0.781953 109.605 0.5 110.093 0.5H114.905C115.394 0.5 115.638 0.781953 115.638 1.34586V3.56121H120.66C121.148 3.56121 121.392 3.82974 121.392 4.36679V7.34745C121.392 7.88451 121.148 8.15303 120.66 8.15303H104.13C103.641 8.15303 103.397 7.88451 103.397 7.34745V4.36679ZM114.766 14.2352C114.766 13.725 114.592 13.2819 114.243 12.906C113.917 12.53 113.336 12.3421 112.499 12.3421C111.639 12.3421 111.046 12.53 110.721 12.906C110.395 13.2819 110.232 13.7384 110.232 14.2755C110.232 14.8125 110.395 15.269 110.721 15.6449C111.069 15.994 111.662 16.1686 112.499 16.1686C113.359 16.1686 113.952 15.9806 114.278 15.6047C114.603 15.2019 114.766 14.7454 114.766 14.2352Z" fill="#2D3F51"/>
<path d="M142.03 28.4134C143.263 28.4134 144.506 28.2926 145.762 28.0509C147.017 27.7824 148.098 27.3796 149.005 26.8425V3.4001C149.005 2.83619 149.238 2.55423 149.703 2.55423H153.713C154.178 2.55423 154.41 2.83619 154.41 3.4001V14.9602H156.294V3.15842C156.294 2.59451 156.526 2.31256 156.991 2.31256H161.036C161.501 2.31256 161.734 2.59451 161.734 3.15842V34.3747C161.734 34.9118 161.501 35.1803 161.036 35.1803H156.991C156.526 35.1803 156.294 34.9118 156.294 34.3747V21.8077H154.41V33.972C154.41 34.509 154.178 34.7775 153.713 34.7775H149.703C149.238 34.7775 149.005 34.509 149.005 33.972V32.5219C148.261 33.0321 147.285 33.4349 146.076 33.7303C144.867 34.0257 143.518 34.1733 142.03 34.1733H135.23C134.765 34.1733 134.533 33.8914 134.533 33.3275V16.4505C134.533 15.9135 134.777 15.6449 135.265 15.6449H141.368V8.87806H135.195C134.707 8.87806 134.463 8.60953 134.463 8.07247V3.92372C134.463 3.38667 134.707 3.11814 135.195 3.11814H146.39C146.878 3.11814 147.122 3.38667 147.122 3.92372V20.3979C147.122 20.9349 146.878 21.2035 146.39 21.2035H140.252V28.4134H142.03Z" fill="#2D3F51"/>
<path d="M171.492 35.1803C171.004 35.1803 170.759 34.9118 170.759 34.3747V29.219C170.759 28.6283 171.004 28.3329 171.492 28.3329H176.479C176.967 28.3329 177.211 28.6283 177.211 29.219V34.3747C177.211 34.9118 176.967 35.1803 176.479 35.1803H171.492ZM165.284 12.8254C165.284 11.1068 165.528 9.58965 166.017 8.27387C166.528 6.95809 167.191 5.87055 168.004 5.01126C168.818 4.12512 169.748 3.46723 170.794 3.03758C171.841 2.58109 172.91 2.35284 174.003 2.35284C175.328 2.35284 176.537 2.56766 177.63 2.9973C178.722 3.42695 179.664 4.03114 180.454 4.80987C181.268 5.58859 181.896 6.52844 182.337 7.6294C182.779 8.73037 183 9.95217 183 11.2948C183 12.4495 182.849 13.4296 182.547 14.2352C182.268 15.0408 181.907 15.7524 181.466 16.37C181.047 16.9607 180.582 17.4978 180.071 17.9811C179.559 18.4376 179.083 18.8941 178.641 19.3506C178.222 19.8071 177.862 20.3039 177.56 20.841C177.281 21.378 177.141 22.0091 177.141 22.7341V25.0703C177.095 25.6073 176.851 25.8758 176.409 25.8758H171.596C171.108 25.8758 170.864 25.6073 170.864 25.0703V21.8882C170.864 21.0021 170.992 20.2368 171.248 19.5923C171.527 18.921 171.864 18.3168 172.259 17.7797C172.654 17.2427 173.073 16.7459 173.514 16.2894C173.979 15.8061 174.41 15.3361 174.805 14.8796C175.2 14.3963 175.525 13.8861 175.781 13.349C176.06 12.812 176.2 12.1944 176.2 11.4962C176.2 10.6906 175.99 10.1133 175.572 9.7642C175.177 9.38826 174.677 9.20029 174.072 9.20029C173.468 9.20029 172.922 9.49567 172.433 10.0864C171.968 10.6772 171.736 11.5902 171.736 12.8254C171.736 13.3893 171.492 13.6713 171.004 13.6713H166.017C165.528 13.6713 165.284 13.3893 165.284 12.8254Z" fill="#2D3F51"/>
</svg>
