<svg width="243" height="47" viewBox="0 0 243 47" fill="none" xmlns="http://www.w3.org/2000/svg">
<path d="M11.5951 10.3395C11.5951 9.05981 11.8148 8.28055 11.9349 7.36045L12.6748 1.94317C12.7339 1.42303 12.7743 1.14325 12.7743 0.963924C12.7743 0.663485 12.5743 0.424072 12.2147 0.424072C11.9143 0.424072 11.6551 0.724511 11.2355 1.22305L6.73734 6.80089V7.1201C8.77657 8.0402 9.27605 8.42044 9.27605 10.3395L9.01598 22.9936C5.53746 29.0709 0 41.1673 0 44.1839C0 45.5838 0.938871 46.4241 1.9998 46.4241C2.97904 46.4241 3.55832 45.8232 4.37796 44.9444C5.13844 44.1248 7.31662 41.9851 8.35595 40.9664C8.816 40.4866 9.53612 39.7459 10.3154 39.7459C11.0946 39.7459 11.795 40.4866 12.2748 40.9664C13.2944 41.9851 15.4933 44.1248 16.2528 44.9444C17.0321 45.8241 17.6329 46.4231 18.6319 46.4231C19.6909 46.4231 20.611 45.5838 20.611 44.1849C20.611 41.2058 15.1731 29.3113 11.7547 23.2537L11.5951 10.3395ZM37.5642 35.9679C38.443 34.629 39.3425 33.2893 39.3425 30.9102C39.3425 28.8118 38.8026 27.4316 38.8026 26.4317C38.8026 25.4732 40.0823 24.6329 43.1402 24.6329C46.2 24.6329 47.4787 25.4732 47.4787 26.4327C47.4787 27.4316 46.9398 28.8118 46.9398 30.9111C46.9398 35.3689 50.2174 36.2683 50.2174 40.1064C50.2174 42.7653 47.2994 44.045 43.1411 44.045C41.0418 44.045 39.3021 43.7652 37.9032 43.0056C37.5936 43.7406 37.1906 44.4326 36.7042 45.0646C38.582 46.0842 40.8015 46.3837 43.1411 46.3837C48.0589 46.3837 52.5768 44.8646 52.5768 39.9064C52.5768 34.9088 49.3189 34.3483 49.3189 31.0707C49.3189 28.9911 49.978 27.3528 49.978 25.9125C49.978 24.0733 47.8984 22.7345 44.5006 22.4941L44.28 10.1799C44.2612 8.95935 46 8.40072 45.9399 7.72004C45.6798 4.48187 45.4601 2.92241 45.3597 2.18352C45.2395 1.3836 44.5401 1.02401 43.1411 1.02401C41.7422 1.02401 41.0418 1.3836 40.9216 2.18352C40.8221 2.92241 40.6024 4.48187 40.3424 7.72098C40.302 8.40072 42.0211 8.96029 42.0013 10.1799L41.7817 22.4941C38.3632 22.7542 36.3043 24.0733 36.3043 25.9125C36.3043 27.3518 36.984 28.9921 36.984 31.0707C36.984 32.05 36.6639 32.8292 36.2442 33.4892C36.7921 34.2531 37.2367 35.0867 37.5642 35.9679ZM20.4702 37.3086C21.4701 35.4693 23.3488 33.7099 23.3488 30.8116C23.3488 27.6532 21.7903 26.2731 21.7903 25.7736L22.009 25.6938C22.5489 26.3735 23.3892 27.4532 24.6679 27.4532C25.7279 27.4532 26.4677 26.8927 26.8874 25.8337C27.3071 26.8927 28.0262 27.4532 29.1059 27.4532C30.3856 27.4532 31.225 26.3735 31.7648 25.6938L31.9648 25.7736C31.9648 26.2731 30.4251 27.6532 30.4251 30.8116C30.4251 34.9492 33.944 36.2692 33.944 39.9074C33.944 42.5456 31.0457 44.0459 26.8874 44.0459C25.1683 44.0459 23.7084 43.7858 22.5686 43.3455C22.5892 44.0656 22.4888 45.2449 22.2888 45.765C23.7685 46.225 25.3082 46.3846 26.8874 46.3846C31.8052 46.3846 36.3231 44.6459 36.3231 39.9074C36.3231 35.1097 32.8042 33.9699 32.8042 30.5712C32.8042 27.7527 34.7035 25.9933 34.7035 24.5146C34.7035 23.5344 33.7834 22.5955 32.7244 22.5955C31.9254 22.5955 31.4851 23.2152 31.1846 23.6142C30.6053 24.3747 30.3659 25.0338 29.2064 25.0338C28.6666 25.0338 28.4271 24.8939 28.2863 24.6338L28.0666 10.1808C28.0666 8.70116 28.5464 8.46081 28.8271 8.3012C29.0459 8.14159 29.2261 7.98199 29.2261 7.62146C29.2261 4.34292 30.1462 3.56366 30.1462 2.70365C30.1462 2.38444 29.8458 2.30369 29.4862 2.06428C28.906 1.64461 27.8272 1.02495 26.9071 1.02495C25.987 1.02495 24.9073 1.64461 24.328 2.06428C23.9882 2.30369 23.6689 2.3835 23.6689 2.70365C23.6689 3.56366 24.589 4.34292 24.589 7.62146C24.589 7.98105 24.7674 8.14159 25.0078 8.3012C25.2678 8.46081 25.7683 8.68145 25.7683 10.1808L25.5082 24.5944C25.388 24.8742 25.1477 25.0338 24.5684 25.0338C23.4089 25.0338 23.1695 24.3747 22.5892 23.6348C22.2888 23.2152 21.8288 22.5955 21.0495 22.5955C19.9904 22.5955 19.0704 23.5344 19.0704 24.5146C19.0704 25.9933 20.9697 27.7527 20.9697 30.5712C20.9697 32.1908 20.09 33.3907 19.3107 34.5502C19.7304 35.4703 20.1303 36.3894 20.4702 37.3086ZM10.3144 37.3884C9.13522 37.3884 8.13626 38.2287 7.05656 39.2079C5.81725 40.3064 4.31693 41.8668 2.65794 43.8262C2.57814 43.9257 2.39788 43.906 2.41759 43.706C2.91801 40.4275 7.01619 31.451 10.3144 25.5135C13.6127 31.4312 17.7109 40.4068 18.2103 43.706C18.231 43.8656 18.032 43.9257 17.9315 43.7858C16.312 41.8668 14.7929 40.3073 13.5526 39.2079C12.4936 38.2277 11.4937 37.3884 10.3144 37.3884ZM43.1402 32.8104C43.7011 32.8067 44.2379 32.5823 44.6345 32.1857C45.0311 31.7891 45.2555 31.2523 45.2592 30.6914C45.2555 30.1305 45.0311 29.5937 44.6345 29.1971C44.2379 28.8005 43.7011 28.5761 43.1402 28.5724C42.5793 28.5761 42.0425 28.8005 41.6459 29.1971C41.2493 29.5937 41.0249 30.1305 41.0212 30.6914C41.0249 31.2523 41.2493 31.7891 41.6459 32.1857C42.0425 32.5823 42.5793 32.8067 43.1402 32.8104Z" fill="black"/>
<path d="M85.8218 31.4146C85.2044 31.4146 84.8957 31.0585 84.8957 30.3461V20.676H82.3951V30.079C82.3951 30.7913 82.0864 31.1475 81.469 31.1475H76.1436C75.5262 31.1475 75.2175 30.7913 75.2175 30.079V3.68641C75.2175 2.93844 75.5262 2.56446 76.1436 2.56446H81.469C82.0864 2.56446 82.3951 2.93844 82.3951 3.68641V12.662H84.8957V3.52613C84.8957 2.77816 85.2044 2.40418 85.8218 2.40418H91.1935C91.8109 2.40418 92.1196 2.77816 92.1196 3.52613V30.3461C92.1196 31.0585 91.8109 31.4146 91.1935 31.4146H85.8218ZM56.9261 27.3008C56.3087 27.3008 56 26.9446 56 26.2323V3.95354C56 3.24119 56.3087 2.88502 56.9261 2.88502H61.8347C62.4521 2.88502 62.7608 3.24119 62.7608 3.95354V8.5482H66.095V3.95354C66.095 3.24119 66.4191 2.88502 67.0674 2.88502H71.8834C72.5317 2.88502 72.8558 3.24119 72.8558 3.95354V26.2323C72.8558 26.9446 72.5317 27.3008 71.8834 27.3008H56.9261ZM91.6565 36.9175C92.274 36.9175 92.5827 37.2737 92.5827 37.9861V44.3972C92.5827 45.1096 92.274 45.4657 91.6565 45.4657H58.2691C57.6516 45.4657 57.3429 45.1096 57.3429 44.3972V32.2695C57.3429 31.5571 57.6516 31.2009 58.2691 31.2009H65.2614C65.8789 31.2009 66.1876 31.5571 66.1876 32.2695V36.9175H91.6565ZM66.095 20.302V15.4936H62.7608V20.302H66.095Z" fill="black"/>
<path d="M97.7604 4.59466C97.7604 3.88231 98.0846 3.52613 98.7329 3.52613H131.009C131.657 3.52613 131.981 3.88231 131.981 4.59466V10.4715C131.981 11.1839 131.657 11.5401 131.009 11.5401H98.7329C98.0846 11.5401 97.7604 11.1839 97.7604 10.4715V4.59466ZM107.207 22.1185H131.194C131.842 22.1185 132.167 22.4746 132.167 23.187V29.0639C132.167 29.7762 131.842 30.1324 131.194 30.1324H99.1959C98.8872 30.1324 98.6402 30.0434 98.455 29.8653C98.2698 29.6872 98.1926 29.4022 98.2235 29.0105L98.9181 14.158C98.9798 13.4812 99.304 13.1429 99.8905 13.1429H106.559C107.238 13.1429 107.562 13.5168 107.531 14.2648L107.207 22.1185ZM97.853 44.9315C97.2047 44.9315 96.8806 44.5575 96.8806 43.8095V37.8258C96.8806 37.1134 97.2047 36.7573 97.853 36.7573H132.444C133.093 36.7573 133.417 37.1134 133.417 37.8258V43.8095C133.417 44.5575 133.093 44.9315 132.444 44.9315H97.853Z" fill="black"/>
<path d="M140.03 45.7329C139.413 45.7329 139.104 45.3767 139.104 44.6643V35.4216C139.104 34.6736 139.413 34.2996 140.03 34.2996H163.647V32.1092H140.03C139.413 32.1092 139.104 31.753 139.104 31.0406V28.2091C139.104 27.4967 139.413 27.1405 140.03 27.1405H171.843C172.461 27.1405 172.769 27.4967 172.769 28.2091V37.3449C172.769 38.0573 172.461 38.4135 171.843 38.4135H148.273V40.7108H172.26C172.877 40.7108 173.186 41.067 173.186 41.7793V44.6643C173.186 45.3767 172.877 45.7329 172.26 45.7329H140.03ZM160.544 18.5389C160.544 19.6787 160.266 20.6581 159.711 21.4774C159.186 22.2966 158.43 22.9733 157.442 23.5075C156.485 24.0062 155.312 24.3802 153.922 24.6295C152.564 24.8432 151.051 24.9501 149.384 24.9501C147.717 24.9501 146.204 24.8432 144.846 24.6295C143.488 24.3802 142.315 24.0062 141.327 23.5075C140.339 22.9733 139.567 22.2966 139.011 21.4774C138.487 20.6581 138.224 19.6787 138.224 18.5389V17.9512C138.224 16.8115 138.487 15.832 139.011 15.0128C139.567 14.1936 140.323 13.5346 141.28 13.036C142.268 12.5017 143.441 12.1278 144.8 11.9141C146.189 11.6647 147.717 11.5401 149.384 11.5401C151.051 11.5401 152.564 11.6647 153.922 11.9141C155.281 12.1278 156.454 12.5017 157.442 13.036C158.43 13.5346 159.186 14.1936 159.711 15.0128C160.266 15.832 160.544 16.8115 160.544 17.9512V18.5389ZM165.175 24.4158C164.527 24.4158 164.203 24.0596 164.203 23.3473V3.52613C164.203 2.77816 164.527 2.40418 165.175 2.40418H171.797C172.445 2.40418 172.769 2.77816 172.769 3.52613V9.08246H174.946C175.563 9.08246 175.872 9.45645 175.872 10.2044V16.5087C175.872 17.2211 175.563 17.5772 174.946 17.5772H172.769V23.3473C172.769 24.0596 172.445 24.4158 171.797 24.4158H165.175ZM137.298 5.12892C137.298 4.41657 137.622 4.06039 138.271 4.06039H145.217V1.12195C145.217 0.373983 145.541 0 146.189 0H152.579C153.228 0 153.552 0.373983 153.552 1.12195V4.06039H160.22C160.868 4.06039 161.193 4.41657 161.193 5.12892V9.08246C161.193 9.79481 160.868 10.151 160.22 10.151H138.271C137.622 10.151 137.298 9.79481 137.298 9.08246V5.12892ZM152.394 18.2184C152.394 17.5416 152.163 16.9539 151.7 16.4553C151.267 15.9566 150.496 15.7073 149.384 15.7073C148.242 15.7073 147.455 15.9566 147.023 16.4553C146.59 16.9539 146.374 17.5594 146.374 18.2718C146.374 18.9841 146.59 19.5896 147.023 20.0883C147.486 20.5513 148.273 20.7828 149.384 20.7828C150.526 20.7828 151.314 20.5335 151.746 20.0348C152.178 19.5006 152.394 18.8951 152.394 18.2184Z" fill="black"/>
<path d="M188.598 37.0244C190.234 37.0244 191.886 36.8641 193.553 36.5436C195.22 36.1874 196.655 35.6531 197.859 34.9408V3.84669C197.859 3.09872 198.168 2.72474 198.785 2.72474H204.111C204.728 2.72474 205.037 3.09872 205.037 3.84669V19.18H207.537V3.52613C207.537 2.77816 207.846 2.40418 208.464 2.40418H213.835C214.453 2.40418 214.761 2.77816 214.761 3.52613V44.9315C214.761 45.6438 214.453 46 213.835 46H208.464C207.846 46 207.537 45.6438 207.537 44.9315V28.2625H205.037V44.3972C205.037 45.1096 204.728 45.4657 204.111 45.4657H198.785C198.168 45.4657 197.859 45.1096 197.859 44.3972V42.4739C196.871 43.1506 195.575 43.6849 193.969 44.0767C192.364 44.4684 190.574 44.6643 188.598 44.6643H179.568C178.95 44.6643 178.642 44.2904 178.642 43.5424V21.1568C178.642 20.4444 178.966 20.0883 179.614 20.0883H187.718V11.1127H179.522C178.873 11.1127 178.549 10.7565 178.549 10.0441V4.54123C178.549 3.82888 178.873 3.47271 179.522 3.47271H194.386C195.034 3.47271 195.359 3.82888 195.359 4.54123V26.3926C195.359 27.1049 195.034 27.4611 194.386 27.4611H186.236V37.0244H188.598Z" fill="black"/>
<path d="M227.719 46C227.07 46 226.746 45.6438 226.746 44.9315V38.0929C226.746 37.3093 227.07 36.9175 227.719 36.9175H234.341C234.989 36.9175 235.313 37.3093 235.313 38.0929V44.9315C235.313 45.6438 234.989 46 234.341 46H227.719ZM219.476 16.3484C219.476 14.0689 219.8 12.0565 220.448 10.3113C221.128 8.56601 222.007 7.1235 223.088 5.98374C224.168 4.80836 225.403 3.93573 226.792 3.36585C228.182 2.76036 229.602 2.45761 231.053 2.45761C232.812 2.45761 234.418 2.74255 235.869 3.31243C237.32 3.88231 238.57 4.6837 239.62 5.71661C240.7 6.74951 241.534 7.99613 242.12 9.45644C242.707 10.9168 243 12.5374 243 14.3182C243 15.8498 242.799 17.1498 242.398 18.2184C242.028 19.2869 241.549 20.2307 240.962 21.0499C240.407 21.8335 239.789 22.5459 239.11 23.187C238.431 23.7925 237.798 24.398 237.212 25.0035C236.656 25.609 236.177 26.2679 235.776 26.9803C235.406 27.6926 235.22 28.5296 235.22 29.4913V32.59C235.159 33.3024 234.835 33.6585 234.248 33.6585H227.858C227.209 33.6585 226.885 33.3024 226.885 32.59V28.3693C226.885 27.194 227.055 26.1789 227.394 25.324C227.765 24.4336 228.213 23.6322 228.737 22.9199C229.262 22.2075 229.818 21.5486 230.404 20.9431C231.022 20.302 231.593 19.6787 232.118 19.0732C232.643 18.4321 233.075 17.7553 233.414 17.043C233.785 16.3306 233.97 15.5114 233.97 14.5854C233.97 13.5168 233.692 12.7511 233.137 12.288C232.612 11.7894 231.948 11.5401 231.145 11.5401C230.343 11.5401 229.617 11.9319 228.969 12.7154C228.352 13.499 228.043 14.71 228.043 16.3484C228.043 17.0964 227.719 17.4704 227.07 17.4704H220.448C219.8 17.4704 219.476 17.0964 219.476 16.3484Z" fill="black"/>
</svg>
