<svg width="26" height="26" viewBox="0 0 26 30" fill="none" xmlns="http://www.w3.org/2000/svg">
<g clip-path="url(#clip0_68_412)">
<path d="M10.1111 27.1429H15.8889C15.8889 28.7143 14.5889 30 13 30C11.4111 30 10.1111 28.7143 10.1111 27.1429ZM26 24.2857V25.7143H0V24.2857L2.88889 21.4286V12.8571C2.88889 8.42857 5.77778 4.57143 10.1111 3.28571V2.85714C10.1111 1.28571 11.4111 0 13 0C14.5889 0 15.8889 1.28571 15.8889 2.85714V3.28571C20.2222 4.57143 23.1111 8.42857 23.1111 12.8571V21.4286L26 24.2857ZM20.2222 12.8571C20.2222 8.85714 17.0444 5.71429 13 5.71429C8.95556 5.71429 5.77778 8.85714 5.77778 12.8571V22.8571H20.2222V12.8571Z" fill="#A9A9A9"/>
</g>
<defs>
<clipPath id="clip0_68_412">
<rect width="26" height="36" fill="white"/>
</clipPath>
</defs>
</svg>
