<svg width="35" height="30" viewBox="0 0 35 30" fill="none" xmlns="http://www.w3.org/2000/svg">
<g clip-path="url(#clip0_107_177)">
<path d="M10.1111 27.1429H15.8889C15.8889 28.7143 14.5889 30 13 30C11.4111 30 10.1111 28.7143 10.1111 27.1429ZM26 24.2857V25.7143H0V24.2857L2.88889 21.4286V12.8571C2.88889 8.42857 5.77778 4.57143 10.1111 3.28571V2.85714C10.1111 1.28571 11.4111 0 13 0C14.5889 0 15.8889 1.28571 15.8889 2.85714V3.28571C20.2222 4.57143 23.1111 8.42857 23.1111 12.8571V21.4286L26 24.2857ZM20.2222 12.8571C20.2222 8.85714 17.0444 5.71429 13 5.71429C8.95556 5.71429 5.77778 8.85714 5.77778 12.8571V22.8571H20.2222V12.8571Z" fill="#A9A9A9"/>
</g>
<rect x="15" y="3.68176" width="20" height="13.6364" rx="6.81818" fill="#BD0000"/>
<path d="M21.5891 14.6885C20.2512 14.6885 19.2454 13.8682 19.1965 12.7451H20.2415C20.3001 13.3506 20.8762 13.79 21.5891 13.79C22.4485 13.79 23.0637 13.165 23.0637 12.3252C23.0637 11.4658 22.429 10.8408 21.5403 10.8311C20.9739 10.8311 20.5442 11.0166 20.3001 11.4561H19.2844L19.7434 7.52051H23.7473V8.43848H20.6321L20.3977 10.4209H20.4661C20.759 10.1377 21.2571 9.94238 21.7942 9.94238C23.1223 9.94238 24.1087 10.9287 24.1087 12.2959C24.1087 13.6924 23.0637 14.6885 21.5891 14.6885ZM27.3313 13.3994V11.5342H25.4661V10.5967H27.3313V8.73145H28.2688V10.5967H30.1438V11.5342H28.2688V13.3994H27.3313Z" fill="white"/>
<defs>
<clipPath id="clip0_107_177">
<rect width="26" height="30" fill="white"/>
</clipPath>
</defs>
</svg>
