<svg width="35" height="30" viewBox="0 0 35 30" fill="none" xmlns="http://www.w3.org/2000/svg">
<g clip-path="url(#clip0_107_156)">
<path d="M10.1111 27.1429H15.8889C15.8889 28.7143 14.5889 30 13 30C11.4111 30 10.1111 28.7143 10.1111 27.1429ZM26 24.2857V25.7143H0V24.2857L2.88889 21.4286V12.8571C2.88889 8.42857 5.77778 4.57143 10.1111 3.28571V2.85714C10.1111 1.28571 11.4111 0 13 0C14.5889 0 15.8889 1.28571 15.8889 2.85714V3.28571C20.2222 4.57143 23.1111 8.42857 23.1111 12.8571V21.4286L26 24.2857ZM20.2222 12.8571C20.2222 8.85714 17.0444 5.71429 13 5.71429C8.95556 5.71429 5.77778 8.85714 5.77778 12.8571V22.8571H20.2222V12.8571Z" fill="#A9A9A9"/>
</g>
<rect x="15" y="3.68176" width="20" height="13.6364" rx="6.81818" fill="#BD0000"/>
<path d="M25.0146 14.6885C23.5498 14.6885 22.5049 13.8975 22.4658 12.7451H23.5596C23.5986 13.3701 24.2139 13.7607 25.0049 13.7607C25.8545 13.7607 26.4795 13.292 26.4795 12.6084C26.4795 11.915 25.8936 11.4072 24.8877 11.4072H24.2822V10.5283H24.8877C25.6885 10.5283 26.2549 10.0791 26.2549 9.40527C26.2549 8.76074 25.7764 8.32129 25.0244 8.32129C24.3115 8.32129 23.6865 8.71191 23.6572 9.35645H22.6221C22.6514 8.2041 23.7158 7.42285 25.0342 7.42285C26.4209 7.42285 27.2998 8.30176 27.29 9.34668C27.2998 10.1475 26.8018 10.7334 26.04 10.9189V10.9678C27.0068 11.1045 27.5635 11.749 27.5635 12.6475C27.5635 13.8291 26.4795 14.6885 25.0146 14.6885Z" fill="white"/>
<defs>
<clipPath id="clip0_107_156">
<rect width="26" height="30" fill="white"/>
</clipPath>
</defs>
</svg>
