<svg width="35" height="30" viewBox="0 0 35 30" fill="none" xmlns="http://www.w3.org/2000/svg">
<g clip-path="url(#clip0_107_163)">
<path d="M10.1111 27.1429H15.8889C15.8889 28.7143 14.5889 30 13 30C11.4111 30 10.1111 28.7143 10.1111 27.1429ZM26 24.2857V25.7143H0V24.2857L2.88889 21.4286V12.8571C2.88889 8.42857 5.77778 4.57143 10.1111 3.28571V2.85714C10.1111 1.28571 11.4111 0 13 0C14.5889 0 15.8889 1.28571 15.8889 2.85714V3.28571C20.2222 4.57143 23.1111 8.42857 23.1111 12.8571V21.4286L26 24.2857ZM20.2222 12.8571C20.2222 8.85714 17.0444 5.71429 13 5.71429C8.95556 5.71429 5.77778 8.85714 5.77778 12.8571V22.8571H20.2222V12.8571Z" fill="#A9A9A9"/>
</g>
<rect x="15" y="3.68176" width="20" height="13.6364" rx="6.81818" fill="#BD0000"/>
<path d="M22.2949 13.2139V12.3447L25.4199 7.52051H26.748V12.3057H27.7148V13.2139H26.748V14.5908H25.7324V13.2139H22.2949ZM23.4277 12.3057H25.7324V8.7998H25.6543L23.4277 12.2471V12.3057Z" fill="white"/>
<defs>
<clipPath id="clip0_107_163">
<rect width="26" height="30" fill="white"/>
</clipPath>
</defs>
</svg>
