<svg width="35" height="30" viewBox="0 0 35 30" fill="none" xmlns="http://www.w3.org/2000/svg">
<g clip-path="url(#clip0_68_416)">
<path d="M10.1111 27.1429H15.8889C15.8889 28.7143 14.5889 30 13 30C11.4111 30 10.1111 28.7143 10.1111 27.1429ZM26 24.2857V25.7143H0V24.2857L2.88889 21.4286V12.8571C2.88889 8.42857 5.77778 4.57143 10.1111 3.28571V2.85714C10.1111 1.28571 11.4111 0 13 0C14.5889 0 15.8889 1.28571 15.8889 2.85714V3.28571C20.2222 4.57143 23.1111 8.42857 23.1111 12.8571V21.4286L26 24.2857ZM20.2222 12.8571C20.2222 8.85714 17.0444 5.71429 13 5.71429C8.95556 5.71429 5.77778 8.85714 5.77778 12.8571V22.8571H20.2222V12.8571Z" fill="#A9A9A9"/>
</g>
<rect x="15" y="3.68176" width="20" height="13.6364" rx="6.81818" fill="#BD0000"/>
<path d="M22.6514 14.5908V13.8096L25.1025 11.3389C25.874 10.5283 26.2646 10.0791 26.2646 9.46387C26.2646 8.77051 25.6982 8.32129 24.9561 8.32129C24.1748 8.32129 23.667 8.81934 23.667 9.57129H22.6514C22.6416 8.28223 23.6279 7.42285 24.9756 7.42285C26.3428 7.42285 27.2803 8.28223 27.29 9.43457C27.2803 10.2256 26.9092 10.8506 25.5811 12.1592L24.1455 13.6143V13.6729H27.4072V14.5908H22.6514Z" fill="white"/>
<defs>
<clipPath id="clip0_68_416">
<rect width="26" height="30" fill="white"/>
</clipPath>
</defs>
</svg>
