<svg width="31" height="31" viewBox="0 0 31 31" fill="none" xmlns="http://www.w3.org/2000/svg">
<path d="M13.8711 2.07576C12.9805 2.06112 12.248 4.03631 13.1504 4.4078L13.6719 4.61932L14.7148 3.71112L14.6094 2.33416L14.0996 2.12323C14.0352 2.09803 13.9766 2.08338 13.9121 2.07752H13.8711V2.07576ZM21.7461 2.53983H21.6113C21.1777 2.55741 20.7148 2.66405 20.2461 2.87674C19.0039 3.44334 17.6914 4.791 16.748 7.31463L10.7187 23.6271L10.7129 23.6389V23.6506C10.7656 23.6799 10.9238 23.7619 11.1816 23.8849C11.7559 24.1662 12.5879 24.8049 12.7109 26.1584V26.1877L12.6523 29.4455H18.3125C18.3066 28.4142 18.3945 27.424 18.7871 26.4279C19.4727 24.7053 21.0898 23.2111 24.4707 21.9162C24.4707 21.9045 24.4707 21.9162 24.4766 21.8928C24.4941 21.7756 24.5 21.5412 24.4766 21.2482C24.418 20.6564 24.2422 19.7892 23.9727 18.7756C23.4336 16.7424 22.5195 14.0764 21.4883 11.4572L21.3477 11.0939L21.6523 10.8478C23.7676 9.19549 24.6465 7.54315 24.8047 6.18612C24.9629 4.83494 24.4238 3.75565 23.5566 3.12459C23.0469 2.75487 22.4258 2.53924 21.7461 2.53748V2.53983ZM15.7637 3.57283L15.8047 4.15936L15.3594 4.54608L16.6309 5.06932C16.7012 4.94217 16.7773 4.81854 16.8535 4.69842L17.0879 4.11893L15.7637 3.57283ZM19.8066 4.66034C20.3223 4.66034 20.7441 5.07987 20.7441 5.59784C20.7441 6.1158 20.3223 6.53533 19.8066 6.53533C19.291 6.53533 18.8691 6.1158 18.8691 5.59784C18.8691 5.07987 19.291 4.66034 19.8066 4.66034ZM11.7969 7.57244C10.9062 7.55487 10.1621 9.52948 11.0762 9.90448L11.5918 10.1154L12.6348 9.20721L12.5352 7.8244L12.0195 7.61346C11.9551 7.59002 11.8965 7.5783 11.8379 7.57244H11.7969ZM13.6836 9.06658L13.7246 9.65252L13.2793 10.0392L14.4453 10.5139L14.8086 9.52948L13.6836 9.06658ZM17.8789 10.2267C18.3945 10.2267 18.8164 10.6486 18.8164 11.1642C18.8164 11.6799 18.3945 12.1017 17.8789 12.1017C17.3633 12.1017 16.9414 11.6799 16.9414 11.1642C16.9414 10.6486 17.3633 10.2267 17.8789 10.2267ZM9.6875 13.1916C8.79102 13.174 8.05859 15.1486 8.96094 15.5236L9.48242 15.7346L10.5254 14.8264L10.4199 13.4435L9.91016 13.2326C9.8457 13.2092 9.78711 13.1974 9.72851 13.1916H9.6875ZM11.5742 14.6857L11.6152 15.2717L11.1699 15.6584L12.3652 16.1447L12.7285 15.1603L11.5742 14.6857ZM15.5117 15.8166C16.0273 15.8166 16.4492 16.2385 16.4492 16.7541C16.4492 17.2697 16.0273 17.6916 15.5117 17.6916C14.9961 17.6916 14.5742 17.2697 14.5742 16.7541C14.5742 16.2385 14.9961 15.8166 15.5117 15.8166ZM7.30273 19.0041C6.41211 18.9865 5.675 20.9611 6.58203 21.3361L7.09766 21.5471L8.14062 20.6389L8.03516 19.256L7.52539 19.0451C7.46094 19.0217 7.40234 19.0099 7.34375 19.0041H7.30273ZM9.18945 20.4982L9.23047 21.0842L8.78516 21.4709L10.1211 22.0158L10.5195 21.0431L9.18945 20.4982ZM13.25 21.5822C13.7656 21.5822 14.1875 22.0041 14.1875 22.5197C14.1875 23.0353 13.7656 23.4572 13.25 23.4572C12.7344 23.4572 12.3125 23.0353 12.3125 22.5197C12.3125 22.0041 12.7344 21.5822 13.25 21.5822Z" fill="white"/>
</svg>
