<svg width="25" height="31" viewBox="0 0 25 31" fill="none" xmlns="http://www.w3.org/2000/svg">
<path d="M11.8305 30C12.0399 30 12.2569 29.9915 12.4838 29.9721L12.6807 29.9503C16.2909 29.623 18.2797 27.2084 18.2784 23.15C18.2772 18.8214 17.7129 13.3035 17.2125 8.43546C16.9994 6.3481 16.8012 4.40863 16.6696 2.78432C16.7774 2.88129 16.9392 3.05463 17.1486 3.35889C17.1988 3.43404 17.2452 3.5298 17.2953 3.63041C17.6076 4.25832 18.1142 5.34685 20.3174 5.15775C20.8616 5.11169 21.6065 5.04865 21.6127 4.40499C21.619 3.83042 21.135 3.65344 19.6202 3.48132C19.2603 2.74916 18.2734 1.14304 16.5103 1.01576C16.4301 1.00849 16.3022 1 16.1504 1C15.551 1 14.7121 1.12607 14.1065 1.72245C13.6437 2.17944 13.418 2.81341 13.4356 3.60617C13.482 5.67171 13.5033 18.2565 13.5033 24.4386C13.4093 24.4773 13.2149 24.6058 13.0682 24.4543C13.0255 24.4095 12.9804 24.2713 12.9942 24.0252C13.0418 23.2421 13.1447 20.0432 13.1196 18.6916C13.1083 18.0625 13.0744 16.1485 11.5709 15.1667C11.3239 15.0066 10.9941 15.0321 10.7797 15.2357L5.83903 19.922C5.70235 20.0517 5.63464 20.236 5.65595 20.4202C5.67727 20.6045 5.78511 20.7705 5.94688 20.8687C5.95565 20.8748 7.12059 21.6045 7.05162 22.6603L7.03658 22.8627C6.9488 24.0979 6.74064 26.9878 8.40215 28.7103C9.22476 29.566 10.3797 30 11.8305 30ZM15.457 2.31036C15.4169 2.45218 15.3993 2.59764 15.4093 2.73825C15.5398 4.39893 15.7454 6.40023 15.9648 8.55668C16.4614 13.3969 17.0232 18.8832 17.0245 23.1512C17.0257 26.595 15.5247 28.4775 12.5628 28.7454C12.445 28.7563 12.3584 28.766 12.3083 28.7757C12.1866 28.7818 12.0061 28.789 11.8305 28.789C10.7258 28.789 9.90315 28.4933 9.31755 27.886C8.02721 26.5489 8.20904 24.0264 8.28679 22.9488L8.30183 22.7391C8.37331 21.63 7.73002 20.7984 7.21589 20.3172L11.2399 16.5C11.7691 17.1134 11.8531 18.031 11.8656 18.7159C11.892 20.0432 11.7891 23.1876 11.7427 23.9573C11.7089 24.5246 11.8468 24.9719 12.1553 25.2883C12.4211 25.5598 12.8011 25.7101 13.2249 25.7101H13.2262C13.9648 25.7101 14.7573 25.2859 14.7573 24.6567C14.7573 18.5535 14.736 5.68141 14.6896 3.58314C14.6795 3.12857 14.7849 2.78795 15.0031 2.5734C15.1284 2.44612 15.2902 2.36369 15.457 2.31036Z" fill="white"/>
<path d="M4.62645 20.2745C4.78696 20.2745 4.94747 20.2151 5.07036 20.0975L11.0242 14.3567C11.2687 14.1203 11.2687 13.736 11.0255 13.4997C10.7784 13.2621 10.3822 13.2633 10.1377 13.4985L4.1838 19.2393C3.93928 19.4757 3.93928 19.8599 4.18255 20.0963C4.30544 20.2163 4.46594 20.2745 4.62645 20.2745Z" fill="white"/>
<path d="M15.733 17.1912C15.2884 17.1912 14.928 16.8428 14.928 16.413C14.928 15.9832 15.2884 15.6348 15.733 15.6348C16.1777 15.6348 16.5381 15.9832 16.5381 16.413C16.5381 16.8428 16.1777 17.1912 15.733 17.1912Z" fill="white"/>
<path d="M15.8519 20.0418C15.4073 20.0418 15.0469 19.6934 15.0469 19.2636C15.0469 18.8338 15.4073 18.4854 15.8519 18.4854C16.2965 18.4854 16.657 18.8338 16.657 19.2636C16.657 19.6934 16.2965 20.0418 15.8519 20.0418Z" fill="white"/>
<path d="M15.8519 23.1609C15.4073 23.1609 15.0469 22.8125 15.0469 22.3827C15.0469 21.9529 15.4073 21.6045 15.8519 21.6045C16.2965 21.6045 16.657 21.9529 16.657 22.3827C16.657 22.8125 16.2965 23.1609 15.8519 23.1609Z" fill="white"/>
</svg>
