<svg width="31" height="31" viewBox="0 0 31 31" fill="none" xmlns="http://www.w3.org/2000/svg">
<g clip-path="url(#clip0_168_384)">
<path d="M15.5007 13.9082C15.2245 13.9082 15.0007 14.1766 15.0007 14.5079C15.0007 14.8392 15.2245 15.1075 15.5007 15.1075C18.007 15.112 20.0383 17.5467 20.0409 20.5527C20.0409 20.884 20.2646 21.1524 20.5409 21.1524C20.8171 21.1524 21.0409 20.884 21.0409 20.5527C21.0396 18.7912 20.4546 17.1031 19.4159 15.8575C18.3784 14.6116 16.9696 13.9115 15.501 13.9085L15.5007 13.9082Z" fill="white"/>
<path d="M15.5007 22.2139C14.6194 22.2139 13.8244 22.851 13.4869 23.8285C13.1494 24.8044 13.3357 25.9288 13.9594 26.6769C14.5832 27.425 15.5207 27.6483 16.3344 27.2436C17.1494 26.8388 17.6807 25.8853 17.6807 24.8284C17.6794 23.3847 16.7044 22.2154 15.5007 22.2139ZM15.5007 26.2436C15.0232 26.2436 14.5932 25.8988 14.4107 25.3696C14.2282 24.8419 14.3294 24.2318 14.6657 23.827C15.0032 23.4237 15.5119 23.3023 15.9519 23.5212C16.3932 23.74 16.6807 24.2558 16.6807 24.8284C16.6794 25.6095 16.1519 26.2421 15.5007 26.2421L15.5007 26.2436Z" fill="white"/>
<path d="M27.0745 9.25342C27.012 9.114 26.9057 9.00906 26.7782 8.96258C26.652 8.91611 26.5145 8.9311 26.3982 9.00606L26.2332 9.111V5.03327H28.7882L28.7869 5.03477C29.0632 5.03477 29.2869 4.76642 29.2869 4.43511C29.2869 4.10379 29.0632 3.83544 28.7869 3.83544H22.6782C22.4019 3.83544 22.1782 4.10379 22.1782 4.43511C22.1782 4.76642 22.4019 5.03477 22.6782 5.03477H25.2332V9.75112L20.0745 13.0448C20.0645 13.0508 20.057 13.0643 20.047 13.0718C18.8658 12.0358 17.462 11.4242 16.0006 11.3133V10.1349H17.3706C17.6468 10.1349 17.8706 9.86656 17.8706 9.53525C17.8706 9.20393 17.6468 8.93558 17.3706 8.93558H13.6305C13.3542 8.93558 13.1305 9.20393 13.1305 9.53525C13.1305 9.86656 13.3542 10.1349 13.6305 10.1349H15.0004V11.3133C13.5404 11.4257 12.138 12.0343 10.9579 13.0703C10.9479 13.0628 10.9429 13.0523 10.9316 13.0448L5.7704 9.7466V5.03332H8.32414C8.60039 5.03332 8.82414 4.76497 8.82414 4.43365C8.82414 4.10234 8.60039 3.83398 8.32414 3.83398H2.21538C1.93914 3.83398 1.71539 4.10234 1.71539 4.43365C1.71539 4.76497 1.93914 5.03332 2.21538 5.03332H4.77038V9.11105L4.60913 9.0091C4.49288 8.93415 4.35538 8.91766 4.22788 8.96413C4.10163 9.0106 3.99538 9.11554 3.93288 9.25647L0.559143 16.8362C0.496644 16.9757 0.482894 17.1406 0.521642 17.2935C0.560391 17.4449 0.647891 17.5723 0.765391 17.6473L4.77048 20.2064V25.3813L2.50925 29.5685C2.35925 29.8473 2.4255 30.2191 2.658 30.399C2.8905 30.5789 3.20049 30.4995 3.35051 30.2206L4.77299 27.5881V29.8953C4.77299 30.2266 4.99674 30.4949 5.27299 30.4949C5.54924 30.4949 5.77299 30.2266 5.77299 29.8953V27.5881L7.19547 30.2206C7.26672 30.357 7.38047 30.4515 7.51047 30.486C7.64047 30.5204 7.77797 30.4905 7.88922 30.4035C8.00172 30.3166 8.08047 30.1786 8.10672 30.0227C8.13422 29.8653 8.10797 29.7019 8.03422 29.5685L5.77049 25.3829V20.845L7.08799 21.6845C7.33174 21.8405 7.63423 21.7295 7.76424 21.4387L7.80674 21.3457H7.80549C7.96799 23.6005 8.81422 25.7067 10.1855 27.2629L9.65799 29.7456H9.65924C9.59049 30.0679 9.75299 30.3932 10.0205 30.4757C10.288 30.5566 10.5605 30.3632 10.628 30.0424L11.038 28.107L11.0392 28.1055C12.3404 29.2208 13.9004 29.8205 15.5003 29.8205C17.1002 29.8205 18.6603 29.2209 19.9627 28.1055L20.3726 30.0394V30.0409C20.4401 30.3617 20.7126 30.5551 20.9801 30.4742C21.1089 30.4352 21.2189 30.3362 21.2864 30.1998C21.3551 30.0619 21.3739 29.8985 21.3414 29.7456L20.8151 27.2675C22.1864 25.7113 23.0339 23.6065 23.1964 21.3502L23.2364 21.4387V21.4402C23.3664 21.731 23.6689 21.842 23.9126 21.6876L25.2326 20.845V25.3845L22.9714 29.57L22.9701 29.5685C22.8201 29.8459 22.8864 30.2177 23.1189 30.3976C23.3501 30.579 23.6601 30.4995 23.8101 30.2207L25.2326 27.5881V29.8953C25.2326 30.2267 25.4564 30.495 25.7326 30.495C26.0089 30.495 26.2326 30.2267 26.2326 29.8953V27.5881L27.6551 30.2207C27.7264 30.3571 27.8401 30.4516 27.9701 30.486C28.1001 30.5205 28.2376 30.4905 28.3489 30.4036C28.4614 30.3166 28.5401 30.1787 28.5664 30.0228C28.5939 29.8654 28.5676 29.702 28.4939 29.5685L26.2326 25.383V20.2049L30.2352 17.6473C30.3527 17.5724 30.4402 17.445 30.4789 17.2935C30.5164 17.1406 30.5039 16.9772 30.4414 16.8363L27.0745 9.25342ZM26.4245 10.3463L27.1382 11.9534L21.8759 15.3176C21.6734 14.9697 21.4521 14.6399 21.2134 14.3281L20.9871 13.8199L26.4245 10.3463ZM4.57821 10.3463L10.0207 13.8244L9.81574 14.2981C9.56699 14.6175 9.33699 14.9593 9.12826 15.3176L3.86461 11.9564L4.57821 10.3463ZM7.1157 20.3459L1.67574 16.8678L3.39198 13.0104L8.61819 16.3505C8.34319 16.9937 8.13445 17.6743 7.9932 18.3774L7.1157 20.3459ZM15.5006 28.6241C13.7156 28.6226 12.0043 27.7726 10.7432 26.2585C9.48071 24.7458 8.77195 22.6934 8.77323 20.5527C8.77323 18.4119 9.48196 16.3595 10.7445 14.847C12.0057 13.3328 13.717 12.4828 15.5019 12.4828C17.2868 12.4828 18.9982 13.3328 20.2593 14.847C21.5218 16.3611 22.2305 18.4135 22.2305 20.5527C22.228 22.6935 21.518 24.7444 20.2568 26.2569C18.9956 27.7711 17.2842 28.6212 15.5006 28.6241ZM23.883 20.349L23.0017 18.364H23.003C22.8617 17.6684 22.6529 16.9938 22.3817 16.3552L27.6105 13.0135L29.3242 16.8725L23.883 20.349Z" fill="white"/>
<path d="M25.7335 0.500011C25.4572 0.500011 25.2335 0.768362 25.2335 1.09968V1.71285H22.6785C22.4022 1.71285 22.1785 1.9812 22.1785 2.31252C22.1785 2.64383 22.4022 2.91218 22.6785 2.91218H28.7872C29.0635 2.91218 29.2872 2.64383 29.2872 2.31252C29.2872 1.9812 29.0635 1.71285 28.7872 1.71285H26.2335V1.09968C26.2335 0.940767 26.1797 0.787851 26.086 0.675402C25.9922 0.562964 25.866 0.500011 25.7335 0.500011Z" fill="white"/>
<path d="M1.71582 2.3125C1.71582 2.47141 1.76832 2.62432 1.86207 2.73677C1.95582 2.84921 2.08332 2.91217 2.21583 2.91217H8.32459C8.60084 2.91217 8.82458 2.64382 8.82458 2.31251C8.82458 1.98119 8.60084 1.71284 8.32459 1.71284H5.77084V1.09967C5.77084 0.768351 5.54709 0.5 5.27085 0.5C4.9946 0.5 4.77085 0.768351 4.77085 1.09967V1.71284H2.21586C1.93961 1.71284 1.71582 1.98118 1.71582 2.3125Z" fill="white"/>
</g>
<defs>
<clipPath id="clip0_168_384">
<rect width="30" height="30" fill="white" transform="translate(0.5 0.5)"/>
</clipPath>
</defs>
</svg>
