<svg width="16" height="16" viewBox="0 0 16 16" fill="none" xmlns="http://www.w3.org/2000/svg">
<path d="M8 11.75C8.2125 11.75 8.39075 11.678 8.53475 11.534C8.67875 11.39 8.7505 11.212 8.75 11C8.7495 10.788 8.6775 10.61 8.534 10.466C8.3905 10.322 8.2125 10.25 8 10.25C7.7875 10.25 7.6095 10.322 7.466 10.466C7.3225 10.61 7.2505 10.788 7.25 11C7.2495 11.212 7.3215 11.3902 7.466 11.5347C7.6105 11.6792 7.7885 11.751 8 11.75ZM7.25 8.75H8.75V4.25H7.25V8.75ZM8 15.5C6.9625 15.5 5.9875 15.303 5.075 14.909C4.1625 14.515 3.36875 13.9808 2.69375 13.3063C2.01875 12.6318 1.4845 11.838 1.091 10.925C0.697501 10.012 0.500501 9.037 0.500001 8C0.499501 6.963 0.696501 5.988 1.091 5.075C1.4855 4.162 2.01975 3.36825 2.69375 2.69375C3.36775 2.01925 4.1615 1.485 5.075 1.091C5.9885 0.697 6.9635 0.5 8 0.5C9.0365 0.5 10.0115 0.697 10.925 1.091C11.8385 1.485 12.6323 2.01925 13.3063 2.69375C13.9803 3.36825 14.5148 4.162 14.9098 5.075C15.3048 5.988 15.5015 6.963 15.5 8C15.4985 9.037 15.3015 10.012 14.909 10.925C14.5165 11.838 13.9823 12.6318 13.3063 13.3063C12.6303 13.9808 11.8365 14.5152 10.925 14.9097C10.0135 15.3042 9.0385 15.501 8 15.5ZM8 14C9.675 14 11.0938 13.4187 12.2563 12.2562C13.4188 11.0937 14 9.675 14 8C14 6.325 13.4188 4.90625 12.2563 3.74375C11.0938 2.58125 9.675 2 8 2C6.325 2 4.90625 2.58125 3.74375 3.74375C2.58125 4.90625 2 6.325 2 8C2 9.675 2.58125 11.0937 3.74375 12.2562C4.90625 13.4187 6.325 14 8 14Z" fill="#D23123"/>
</svg>
