<svg width="27" height="27" viewBox="0 0 27 27" fill="none" xmlns="http://www.w3.org/2000/svg">
<path d="M1.125 22.5V19.35C1.125 18.7125 1.28925 18.1267 1.61775 17.5927C1.94625 17.0587 2.382 16.6508 2.925 16.3688C4.0875 15.7875 5.26875 15.3517 6.46875 15.0615C7.66875 14.7712 8.8875 14.6257 10.125 14.625C11.3625 14.625 12.5813 14.7705 13.7812 15.0615C14.9812 15.3525 16.1625 15.7882 17.325 16.3688C17.8687 16.65 18.3049 17.058 18.6334 17.5927C18.9619 18.1275 19.1257 18.7133 19.125 19.35V22.5H1.125ZM21.375 22.5V19.125C21.375 18.3 21.1455 17.5076 20.6865 16.7479C20.2275 15.9881 19.5758 15.3368 18.7312 14.7937C19.6875 14.9062 20.5875 15.0986 21.4312 15.3709C22.275 15.6431 23.0625 15.9757 23.7937 16.3688C24.4688 16.7438 24.9844 17.1607 25.3406 17.6198C25.6969 18.0787 25.875 18.5805 25.875 19.125V22.5H21.375ZM10.125 13.5C8.8875 13.5 7.82813 13.0594 6.94688 12.1781C6.06563 11.2969 5.625 10.2375 5.625 9C5.625 7.7625 6.06563 6.70313 6.94688 5.82188C7.82813 4.94063 8.8875 4.5 10.125 4.5C11.3625 4.5 12.4219 4.94063 13.3031 5.82188C14.1844 6.70313 14.625 7.7625 14.625 9C14.625 10.2375 14.1844 11.2969 13.3031 12.1781C12.4219 13.0594 11.3625 13.5 10.125 13.5ZM21.375 9C21.375 10.2375 20.9344 11.2969 20.0531 12.1781C19.1719 13.0594 18.1125 13.5 16.875 13.5C16.6687 13.5 16.4062 13.4767 16.0875 13.4303C15.7688 13.3837 15.5063 13.332 15.3 13.275C15.8063 12.675 16.1955 12.0094 16.4677 11.2781C16.74 10.5469 16.8757 9.7875 16.875 9C16.875 8.2125 16.7392 7.45312 16.4677 6.72187C16.1962 5.99062 15.807 5.325 15.3 4.725C15.5625 4.63125 15.825 4.5705 16.0875 4.54275C16.35 4.515 16.6125 4.50075 16.875 4.5C18.1125 4.5 19.1719 4.94063 20.0531 5.82188C20.9344 6.70313 21.375 7.7625 21.375 9Z" fill="#9FA7BB"/>
</svg>
