<svg width="31" height="31" viewBox="0 0 31 31" fill="none" xmlns="http://www.w3.org/2000/svg">
<path d="M21.9602 6.00878C22.4089 2.68709 18.9157 2 18.9157 2C17.4818 2.04551 16.8809 3.18871 16.8809 3.18871C16.8809 3.18871 16.7666 3.57035 16.5691 4.22952L15.7797 4.00956C15.9173 3.04219 15.0958 2.81603 15.0958 2.81603C15.0958 2.81603 14.1465 2.5454 13.8013 3.70342L13.7999 3.70067C13.7985 3.70618 13.7978 3.71032 13.7964 3.71514C13.795 3.71997 13.7929 3.72376 13.7922 3.72859L13.7939 3.72721C13.4776 4.89248 14.4304 5.15311 14.4304 5.15311C14.4304 5.15311 15.2498 5.38409 15.6428 4.48808L16.4259 4.70631C16.2047 5.44753 15.9135 6.42111 15.5794 7.54156L14.8335 7.33367C14.9714 6.3656 14.1503 6.14048 14.1503 6.14048C14.1503 6.14048 13.2007 5.8695 12.8551 7.02753L12.8537 7.02512C12.853 7.03063 12.8516 7.03511 12.8502 7.03891C12.8495 7.04442 12.8474 7.04787 12.8467 7.05339L12.8481 7.05097C12.5318 8.21727 13.4835 8.47756 13.4835 8.47756C13.4835 8.47756 14.3033 8.7082 14.6962 7.81253L15.4365 8.01904C15.1739 8.90023 14.8889 9.85726 14.5914 10.855L13.887 10.6585C14.0246 9.69109 13.2045 9.46493 13.2045 9.46493C13.2045 9.46493 12.2545 9.19464 11.9092 10.3523L11.9085 10.3503C11.9064 10.3551 11.9057 10.3592 11.9044 10.364C11.903 10.3689 11.9016 10.373 11.9002 10.3775L11.9023 10.3758C11.5866 11.541 12.538 11.802 12.538 11.802C12.538 11.802 13.3567 12.033 13.75 11.1377L14.4492 11.3321C14.173 12.2592 13.8897 13.2145 13.6065 14.1677L12.9418 13.9822C13.0798 13.0145 12.2587 12.7897 12.2587 12.7897C12.2587 12.7897 11.309 12.5181 10.9634 13.6764V13.6733C10.9613 13.6782 10.9606 13.6826 10.9599 13.6871C10.9585 13.6919 10.9564 13.6957 10.955 13.7013L10.9571 13.6988C10.6408 14.8648 11.5919 15.1258 11.5919 15.1258C11.5919 15.1258 12.4119 15.3564 12.8046 14.4604L13.4647 14.6445C13.1798 15.6077 12.8972 16.5634 12.6258 17.4818L11.9953 17.3063C12.1343 16.3386 11.3128 16.1131 11.3128 16.1131C11.3128 16.1131 10.3628 15.8422 10.0169 16.9995L10.0162 16.9971C10.0148 17.0029 10.0141 17.0067 10.0127 17.0116C10.0113 17.0164 10.0092 17.0205 10.0085 17.025L10.0106 17.0236C9.69426 18.1886 10.6471 18.4495 10.6471 18.4495C10.6471 18.4495 11.4664 18.6812 11.8591 17.7848L12.4847 17.9593C12.1862 18.9749 11.904 19.9347 11.6521 20.798L11.0498 20.6304C11.1877 19.6624 10.3659 19.4369 10.3659 19.4369C10.3659 19.4369 9.41696 19.1656 9.07067 20.3236V20.3208C9.06928 20.326 9.06858 20.3305 9.06719 20.3353C9.0658 20.3398 9.0644 20.3436 9.06231 20.3488L9.0644 20.3471C8.74808 21.513 9.69984 21.774 9.69984 21.774C9.69984 21.774 10.5196 22.005 10.9132 21.1086L11.5121 21.2758C11.001 23.0337 10.6391 24.3093 10.5534 24.6765C10.5391 24.7382 10.544 24.914 10.5635 25.0016C10.584 25.0891 10.6969 25.6176 11.85 26.5505C12.7042 27.0887 12.5879 29 12.5879 29H18.7931C18.7931 29 18.7931 27.8658 18.7931 26.9025C18.7931 23.1385 21.3356 18.7057 21.617 15.0113C21.747 12.476 20.1291 10.6364 20.2469 9.58939C20.3859 8.3662 21.6561 8.32035 21.9602 6.00878ZM12.7432 24.0752C12.3214 24.0752 11.9796 23.7373 11.9796 23.3205C11.9796 22.9037 12.3214 22.5652 12.7432 22.5652C13.1637 22.5652 13.5058 22.9037 13.5058 23.3205C13.5058 23.7373 13.1637 24.0752 12.7432 24.0752ZM13.7925 20.6553C13.3707 20.6553 13.0293 20.3167 13.0293 19.8996C13.0293 19.4828 13.3707 19.1442 13.7925 19.1442C14.2141 19.1442 14.5562 19.4828 14.5562 19.8996C14.5562 20.3167 14.2141 20.6553 13.7925 20.6553ZM14.7896 17.2667C14.367 17.2667 14.0253 16.9274 14.0253 16.5103C14.0253 16.0935 14.367 15.7553 14.7896 15.7553C15.2101 15.7553 15.5522 16.0935 15.5522 16.5103C15.5522 16.9274 15.2101 17.2667 14.7896 17.2667ZM15.7539 13.8564C15.332 13.8564 14.9913 13.5185 14.9913 13.1003C14.9913 12.6839 15.3324 12.3457 15.7539 12.3457C16.1751 12.3457 16.5175 12.6839 16.5175 13.1003C16.5175 13.5182 16.1751 13.8564 15.7539 13.8564ZM16.7931 10.3734C16.3716 10.3734 16.0295 10.0341 16.0295 9.61697C16.0295 9.20051 16.3716 8.8623 16.7931 8.8623C17.2136 8.8623 17.5557 9.20016 17.5557 9.61697C17.5557 10.0341 17.2136 10.3734 16.7931 10.3734ZM17.8003 6.82654C17.3784 6.82654 17.037 6.48765 17.037 6.07015C17.037 5.65369 17.3784 5.31549 17.8003 5.31549C18.2207 5.31549 18.5639 5.65369 18.5639 6.07015C18.5639 6.48765 18.2207 6.82654 17.8003 6.82654Z" fill="white"/>
</svg>
