<svg width="18" height="18" viewBox="0 0 18 18" fill="none" xmlns="http://www.w3.org/2000/svg">
<path d="M9 15.75C7.275 15.75 5.772 15.1782 4.491 14.0347C3.21 12.8912 2.4755 11.463 2.2875 9.75H3.825C4 11.05 4.57825 12.125 5.55975 12.975C6.54125 13.825 7.688 14.25 9 14.25C10.4625 14.25 11.7032 13.7407 12.7222 12.7222C13.7412 11.7037 14.2505 10.463 14.25 9C14.2495 7.537 13.7402 6.2965 12.7222 5.2785C11.7042 4.2605 10.4635 3.751 9 3.75C8.1375 3.75 7.33125 3.95 6.58125 4.35C5.83125 4.75 5.2 5.3 4.6875 6H6.75V7.5H2.25V3H3.75V4.7625C4.3875 3.9625 5.16575 3.34375 6.08475 2.90625C7.00375 2.46875 7.9755 2.25 9 2.25C9.9375 2.25 10.8157 2.42825 11.6347 2.78475C12.4537 3.14125 13.1663 3.62225 13.7723 4.22775C14.3783 4.83325 14.8595 5.54575 15.216 6.36525C15.5725 7.18475 15.7505 8.063 15.75 9C15.7495 9.937 15.5715 10.8152 15.216 11.6347C14.8605 12.4542 14.3793 13.1668 13.7723 13.7723C13.1653 14.3778 12.4527 14.859 11.6347 15.216C10.8167 15.573 9.9385 15.751 9 15.75ZM11.1 12.15L8.25 9.3V5.25H9.75V8.7L12.15 11.1L11.1 12.15Z" fill="#2D3F51"/>
</svg>
