<svg width="31" height="31" viewBox="0 0 31 31" fill="none" xmlns="http://www.w3.org/2000/svg">
<path d="M2.86715 1.76563C2.45699 1.90625 2.16402 2.11719 1.97652 2.41016C1.6484 2.94922 1.66011 2 1.67183 15.6172L1.68355 28.0273L1.82418 28.3203C2.0234 28.7539 2.2109 28.9414 2.62105 29.1406L2.98433 29.3164H15.5H28.0156L28.3203 29.1758C28.707 29 29 28.707 29.1757 28.3203L29.3164 28.0156V15.5117V2.98438L29.1406 2.62109C28.9414 2.21094 28.7539 2.02344 28.3203 1.82422L28.0273 1.68359L15.5937 1.67188C3.74605 1.67188 3.13668 1.67188 2.86715 1.76563ZM6.42965 11.0469V19.5664L6.57027 19.6953C6.69918 19.8242 6.72261 19.8359 7.43746 19.8359H8.16402V24.1602V28.4961L5.63277 28.4844C3.17183 28.4727 3.0898 28.4609 2.94918 28.3555C2.86715 28.2969 2.74996 28.1797 2.69136 28.0977L2.57418 27.957V15.4766V3.01953L2.69136 2.86719C2.92574 2.53906 3.00777 2.52734 4.81246 2.52734H6.44136L6.42965 11.0469ZM13.3437 11.0469V19.5664L13.4843 19.6953C13.6132 19.8242 13.6367 19.8359 14.3515 19.8359H15.0781V24.1602V28.4844H12.0546H9.01949V24.1602V19.8359H9.74605C10.4492 19.8359 10.4843 19.8359 10.6132 19.6953L10.7539 19.5664V11.0469V2.52734H12.0546H13.3554L13.3437 11.0469ZM20.2695 11.0469V19.5664L20.4101 19.6953C20.539 19.8242 20.5625 19.8359 21.2773 19.8359H22.0039V24.1602V28.4844H18.9804H15.957V24.1602V19.8359H16.6836C17.3867 19.8359 17.4218 19.8359 17.5507 19.6953L17.6914 19.5664V11.0469V2.52734H18.9921H20.2929L20.2695 11.0469ZM28.1211 2.70312C28.5312 3.00781 28.4843 1.8125 28.4726 15.582L28.4609 27.9453L28.3437 28.0859C28.2851 28.168 28.1679 28.2852 28.0859 28.3438C27.9453 28.4492 27.8632 28.4609 25.4023 28.4727L22.8711 28.4844V24.1484V19.8359H23.5976C24.3007 19.8359 24.3359 19.8359 24.4648 19.6953L24.6054 19.5664V11.0469V2.52734L26.2695 2.53906L27.9453 2.55078L28.1211 2.70312Z" fill="white"/>
</svg>
