<svg width="30" height="30" viewBox="0 0 37 25" fill="none" xmlns="http://www.w3.org/2000/svg">
<path d="M36.3833 0.0234375H0.616666C0.275959 0.0234375 0 0.312728 0 0.669895V24.3305C0 24.5018 0.064749 24.6666 0.180374 24.7878C0.296 24.9091 0.453251 24.9769 0.616678 24.9769H36.3833C36.5467 24.9769 36.704 24.9091 36.8196 24.7878C36.9353 24.6666 37 24.5018 37 24.3305V0.669895C37 0.498585 36.9352 0.333738 36.8196 0.212514C36.704 0.09129 36.5467 0.0234375 36.3833 0.0234375ZM6.19607 1.31635H7.56508V12.9265H6.19607V1.31635ZM8.18171 14.2182C8.34513 14.2182 8.50238 14.1503 8.61801 14.0291C8.73364 13.9079 8.79839 13.7431 8.79839 13.5717V1.31655H10.7779V13.5734C10.7779 13.7447 10.8426 13.9095 10.9583 14.0308C11.0739 14.152 11.2311 14.2199 11.3946 14.2199H12.0729V23.684H7.49715V14.2199L8.18171 14.2182ZM13.3076 14.2182H13.9891C14.1525 14.2182 14.3097 14.1503 14.4254 14.0291C14.541 13.9079 14.6057 13.7431 14.6057 13.5717V1.31655H16.5883V13.5734C16.5883 13.7447 16.6531 13.9095 16.7687 14.0308C16.8843 14.152 17.0416 14.2199 17.205 14.2199H17.8833V23.684H13.3076L13.3076 14.2182ZM17.8187 12.9253V1.31635H19.1784V12.9265L17.8187 12.9253ZM19.1183 14.2182H19.7967C19.9601 14.2182 20.1173 14.1503 20.233 14.0291C20.3486 13.9079 20.4133 13.7431 20.4133 13.5717V1.31655H22.3928V13.5734C22.3928 13.7447 22.4576 13.9095 22.5732 14.0308C22.6888 14.152 22.8461 14.2199 23.0095 14.2199H23.6956V23.684H19.1166L19.1183 14.2182ZM23.6262 12.9253L23.6277 1.31635H24.9968V12.9265L23.6262 12.9253ZM24.9289 14.2182H25.6134C25.7768 14.2182 25.9341 14.1503 26.0497 14.0291C26.1653 13.9079 26.2301 13.7431 26.2301 13.5717V1.31655H28.2096V13.5734C28.2096 13.7447 28.2759 13.9095 28.3915 14.0308C28.5071 14.152 28.6628 14.2199 28.8263 14.2199H29.5046V23.684H24.9304L24.9289 14.2182ZM29.4431 12.9253V1.31635H30.8044V12.9265L29.4431 12.9253ZM13.3727 1.31635V12.9265H12.0114V1.31635H13.3727ZM1.23353 1.31635H4.96281V13.5732C4.96281 13.7445 5.02756 13.9094 5.14319 14.0306C5.25881 14.1518 5.41606 14.2197 5.57949 14.2197H6.264V23.6838H1.23358L1.23353 1.31635ZM35.7668 23.6836H30.7412V14.2194H31.4195C31.5829 14.2194 31.7402 14.1516 31.8558 14.0304C31.9714 13.9091 32.0362 13.7443 32.0362 13.573V1.31613H35.767L35.7668 23.6836Z" fill="white"/>
</svg>
