<svg width="18" height="18" viewBox="0 0 18 18" fill="none" xmlns="http://www.w3.org/2000/svg">
<g clip-path="url(#clip0_428_654)">
<path fill-rule="evenodd" clip-rule="evenodd" d="M6.21959 9.53026C6.07899 9.38962 6 9.19889 6 9.00001C6 8.80114 6.07899 8.61041 6.21959 8.46976L10.4623 4.22701C10.5315 4.15538 10.6143 4.09824 10.7058 4.05894C10.7973 4.01963 10.8957 3.99894 10.9953 3.99808C11.0949 3.99721 11.1936 4.01619 11.2858 4.0539C11.378 4.09161 11.4617 4.1473 11.5321 4.21772C11.6026 4.28814 11.6582 4.37188 11.696 4.46405C11.7337 4.55622 11.7526 4.65498 11.7518 4.75456C11.7509 4.85415 11.7302 4.95256 11.6909 5.04407C11.6516 5.13557 11.5945 5.21833 11.5228 5.28751L7.81034 9.00001L11.5228 12.7125C11.6595 12.854 11.7351 13.0434 11.7333 13.2401C11.7316 13.4367 11.6528 13.6248 11.5137 13.7639C11.3746 13.9029 11.1865 13.9818 10.9899 13.9835C10.7932 13.9852 10.6038 13.9096 10.4623 13.773L6.21959 9.53026Z" fill="#2D3F51"/>
</g>
<defs>
<clipPath id="clip0_428_654">
<rect width="18" height="18" fill="white"/>
</clipPath>
</defs>
</svg>
