<svg width="27" height="27" viewBox="0 0 27 27" fill="none" xmlns="http://www.w3.org/2000/svg">
<path d="M16.875 23.625L10.125 21.2625L4.89375 23.2875C4.51875 23.4375 4.17187 23.3955 3.85312 23.1615C3.53437 22.9275 3.375 22.6133 3.375 22.2188V6.46875C3.375 6.225 3.4455 6.00938 3.5865 5.82188C3.7275 5.63438 3.9195 5.49375 4.1625 5.4L10.125 3.375L16.875 5.7375L22.1062 3.7125C22.4812 3.5625 22.8281 3.60488 23.1469 3.83963C23.4656 4.07438 23.625 4.38825 23.625 4.78125V20.5312C23.625 20.775 23.5549 20.9906 23.4146 21.1781C23.2744 21.3656 23.082 21.5063 22.8375 21.6L16.875 23.625ZM15.75 20.8687V7.70625L11.25 6.13125V19.2937L15.75 20.8687ZM18 20.8687L21.375 19.7437V6.4125L18 7.70625V20.8687ZM5.625 20.5875L9 19.2937V6.13125L5.625 7.25625V20.5875Z" fill="#9FA7BB"/>
</svg>
