<svg width="38" height="38" viewBox="0 0 38 38" fill="none" xmlns="http://www.w3.org/2000/svg">
<circle cx="19" cy="19" r="19" fill="#E6E6E6"/>
<path d="M12.5 16.3594C12.5 16.7288 12.6467 17.0831 12.908 17.3443C13.1692 17.6055 13.5234 17.7522 13.8929 17.7522C14.2623 17.7522 14.6165 17.6055 14.8778 17.3443C15.139 17.0831 15.2857 16.7288 15.2857 16.3594C15.2857 15.99 15.139 15.6357 14.8778 15.3745C14.6165 15.1133 14.2623 14.9665 13.8929 14.9665C13.5234 14.9665 13.1692 15.1133 12.908 15.3745C12.6467 15.6357 12.5 15.99 12.5 16.3594ZM22.7143 16.3594C22.7143 16.7288 22.861 17.0831 23.1222 17.3443C23.3835 17.6055 23.7377 17.7522 24.1071 17.7522C24.4766 17.7522 24.8308 17.6055 25.092 17.3443C25.3533 17.0831 25.5 16.7288 25.5 16.3594C25.5 15.99 25.3533 15.6357 25.092 15.3745C24.8308 15.1133 24.4766 14.9665 24.1071 14.9665C23.7377 14.9665 23.3835 15.1133 23.1222 15.3745C22.861 15.6357 22.7143 15.99 22.7143 16.3594ZM19 6C11.821 6 6 11.821 6 19C6 26.179 11.821 32 19 32C26.179 32 32 26.179 32 19C32 11.821 26.179 6 19 6ZM26.6317 26.6317C25.6393 27.6241 24.4844 28.4018 23.1989 28.9473C21.8728 29.5103 20.4596 29.7946 19 29.7946C17.5404 29.7946 16.1272 29.5103 14.7982 28.9473C13.5147 28.4052 12.3488 27.6188 11.3654 26.6317C10.373 25.6393 9.59531 24.4844 9.04978 23.1989C8.48973 21.8728 8.20536 20.4596 8.20536 19C8.20536 17.5404 8.48973 16.1272 9.05268 14.7982C9.59476 13.5147 10.3812 12.3488 11.3683 11.3654C12.3607 10.373 13.5156 9.59531 14.8011 9.04978C16.1272 8.48973 17.5404 8.20536 19 8.20536C20.4596 8.20536 21.8728 8.48973 23.2018 9.05268C24.4853 9.59476 25.6512 10.3812 26.6346 11.3683C27.627 12.3607 28.4047 13.5156 28.9502 14.8011C29.5103 16.1272 29.7946 17.5404 29.7946 19C29.7946 20.4596 29.5103 21.8728 28.9473 23.2018C28.4059 24.4848 27.6193 25.6499 26.6317 26.6317ZM23.4107 19.6094H22.015C21.8931 19.6094 21.7886 19.7022 21.7799 19.8241C21.6696 21.2605 20.4654 22.3951 19 22.3951C17.5346 22.3951 16.3275 21.2605 16.2201 19.8241C16.2114 19.7022 16.1069 19.6094 15.985 19.6094H14.5893C14.5578 19.6093 14.5266 19.6157 14.4977 19.6281C14.4687 19.6405 14.4426 19.6586 14.4209 19.6814C14.3992 19.7042 14.3823 19.7312 14.3714 19.7607C14.3604 19.7902 14.3556 19.8217 14.3571 19.8531C14.4848 22.2993 16.519 24.2522 19 24.2522C21.481 24.2522 23.5152 22.2993 23.6429 19.8531C23.6444 19.8217 23.6396 19.7902 23.6286 19.7607C23.6177 19.7312 23.6008 19.7042 23.5791 19.6814C23.5574 19.6586 23.5313 19.6405 23.5023 19.6281C23.4734 19.6157 23.4422 19.6093 23.4107 19.6094Z" fill="#A9A9A9"/>
</svg>
