<svg width="27" height="27" viewBox="0 0 27 27" fill="none" xmlns="http://www.w3.org/2000/svg">
<path d="M24.0863 13.0275L13.9613 2.9025C13.5562 2.4975 12.9937 2.25 12.375 2.25H4.5C3.2625 2.25 2.25 3.2625 2.25 4.5V12.375C2.25 12.9937 2.4975 13.5562 2.91375 13.9725L13.0387 24.0975C13.4438 24.5025 14.0063 24.75 14.625 24.75C15.2437 24.75 15.8062 24.5025 16.2113 24.0863L24.0863 16.2113C24.5025 15.8062 24.75 15.2437 24.75 14.625C24.75 14.0063 24.4912 13.4325 24.0863 13.0275ZM14.625 22.5112L4.5 12.375V4.5H12.375V4.48875L22.5 14.6137L14.625 22.5112Z" fill="#9FA7BB"/>
<path d="M7.3125 9C8.24448 9 9 8.24448 9 7.3125C9 6.38052 8.24448 5.625 7.3125 5.625C6.38052 5.625 5.625 6.38052 5.625 7.3125C5.625 8.24448 6.38052 9 7.3125 9Z" fill="#9FA7BB"/>
</svg>
