<svg width="20" height="20" viewBox="0 0 30 31" fill="none" xmlns="http://www.w3.org/2000/svg">
<path d="M24.5 27.2034L16.625 19.3284C16 19.8284 15.2813 20.2242 14.4688 20.5159C13.6563 20.8075 12.7917 20.9534 11.875 20.9534C9.60417 20.9534 7.6825 20.1667 6.11 18.5934C4.5375 17.02 3.75083 15.0984 3.75 12.8284C3.74917 10.5584 4.53583 8.6367 6.11 7.06337C7.68417 5.49004 9.60583 4.70337 11.875 4.70337C14.1442 4.70337 16.0663 5.49004 17.6413 7.06337C19.2163 8.6367 20.0025 10.5584 20 12.8284C20 13.745 19.8542 14.6096 19.5625 15.4221C19.2708 16.2346 18.875 16.9534 18.375 17.5784L26.25 25.4534L24.5 27.2034ZM11.875 18.4534C13.4375 18.4534 14.7658 17.9067 15.86 16.8134C16.9542 15.72 17.5008 14.3917 17.5 12.8284C17.4992 11.265 16.9525 9.93712 15.86 8.84462C14.7675 7.75212 13.4392 7.20504 11.875 7.20337C10.3108 7.2017 8.98292 7.74879 7.89125 8.84462C6.79958 9.94045 6.2525 11.2684 6.25 12.8284C6.2475 14.3884 6.79458 15.7167 7.89125 16.8134C8.98792 17.91 10.3158 18.4567 11.875 18.4534Z" fill="#CAD7E0"/>
</svg>
