<svg width="31" height="31" viewBox="0 0 31 31" fill="none" xmlns="http://www.w3.org/2000/svg">
<path d="M14.5625 21.125H19.25C19.7473 21.125 20.2242 20.9275 20.5758 20.5758C20.9275 20.2242 21.125 19.7473 21.125 19.25V18.3125H18.3125C18.0639 18.3125 17.8254 18.2137 17.6496 18.0379C17.4738 17.8621 17.375 17.6236 17.375 17.375C17.375 17.1264 17.4738 16.8879 17.6496 16.7121C17.8254 16.5363 18.0639 16.4375 18.3125 16.4375H21.125V13.625H18.3125C18.0639 13.625 17.8254 13.5262 17.6496 13.3504C17.4738 13.1746 17.375 12.9361 17.375 12.6875C17.375 12.4389 17.4738 12.2004 17.6496 12.0246C17.8254 11.8488 18.0639 11.75 18.3125 11.75H21.125V8.9375H18.3125C18.0639 8.9375 17.8254 8.83873 17.6496 8.66291C17.4738 8.4871 17.375 8.24864 17.375 8C17.375 7.75136 17.4738 7.5129 17.6496 7.33709C17.8254 7.16127 18.0639 7.0625 18.3125 7.0625H21.125V6.125C21.125 5.62772 20.9275 5.15081 20.5758 4.79917C20.2242 4.44754 19.7473 4.25 19.25 4.25H11.75C11.2527 4.25 10.7758 4.44754 10.4242 4.79917C10.0725 5.15081 9.875 5.62772 9.875 6.125V7.0625H12.6875C12.9361 7.0625 13.1746 7.16127 13.3504 7.33709C13.5262 7.5129 13.625 7.75136 13.625 8C13.625 8.24864 13.5262 8.4871 13.3504 8.66291C13.1746 8.83873 12.9361 8.9375 12.6875 8.9375H9.875V11.75H12.6875C12.9361 11.75 13.1746 11.8488 13.3504 12.0246C13.5262 12.2004 13.625 12.4389 13.625 12.6875C13.625 12.9361 13.5262 13.1746 13.3504 13.3504C13.1746 13.5262 12.9361 13.625 12.6875 13.625H9.875V16.4375H12.6875C12.9361 16.4375 13.1746 16.5363 13.3504 16.7121C13.5262 16.8879 13.625 17.1264 13.625 17.375C13.625 17.6236 13.5262 17.8621 13.3504 18.0379C13.1746 18.2137 12.9361 18.3125 12.6875 18.3125H9.875V19.25C9.875 19.7473 10.0725 20.2242 10.4242 20.5758C10.7758 20.9275 11.2527 21.125 11.75 21.125H14.5625ZM16.4375 23V26.75H22.0625C22.3111 26.75 22.5496 26.8488 22.7254 27.0246C22.9012 27.2004 23 27.4389 23 27.6875C23 27.9361 22.9012 28.1746 22.7254 28.3504C22.5496 28.5262 22.3111 28.625 22.0625 28.625H8.9375C8.68886 28.625 8.4504 28.5262 8.27459 28.3504C8.09877 28.1746 8 27.9361 8 27.6875C8 27.4389 8.09877 27.2004 8.27459 27.0246C8.4504 26.8488 8.68886 26.75 8.9375 26.75H14.5625V23H11.75C10.7554 23 9.80161 22.6049 9.09835 21.9016C8.39509 21.1984 8 20.2446 8 19.25V6.125C8 5.13044 8.39509 4.17661 9.09835 3.47335C9.80161 2.77009 10.7554 2.375 11.75 2.375H19.25C20.2446 2.375 21.1984 2.77009 21.9016 3.47335C22.6049 4.17661 23 5.13044 23 6.125V19.25C23 20.2446 22.6049 21.1984 21.9016 21.9016C21.1984 22.6049 20.2446 23 19.25 23H16.4375Z" fill="white"/>
</svg>
